<svg xmlns="http://www.w3.org/2000/svg" viewBox="0 0 1200 760" role="img" aria-labelledby="title desc">
  <title id="title">システム開発サービスのサムネイル</title>
  <desc id="desc">開発画面、API、クラウド基盤を表した抽象的なイラスト</desc>
  <defs>
    <linearGradient id="bg" x1="0" x2="1" y1="0" y2="1">
      <stop offset="0" stop-color="#151515"/>
      <stop offset="0.55" stop-color="#242126"/>
      <stop offset="1" stop-color="#3a2735"/>
    </linearGradient>
    <linearGradient id="accent" x1="0" x2="1">
      <stop offset="0" stop-color="#cc78aa"/>
      <stop offset="1" stop-color="#f0d17a"/>
    </linearGradient>
    <filter id="shadow" x="-20%" y="-20%" width="140%" height="140%">
      <feDropShadow dx="0" dy="18" stdDeviation="24" flood-color="#000000" flood-opacity="0.34"/>
    </filter>
  </defs>
  <rect width="1200" height="760" fill="url(#bg)"/>
  <rect x="78" y="86" width="1044" height="588" rx="34" fill="#111113" stroke="#4b424b" stroke-width="2" filter="url(#shadow)"/>
  <rect x="78" y="86" width="1044" height="72" rx="34" fill="#1f1d21"/>
  <circle cx="126" cy="122" r="12" fill="#ff6b6b"/>
  <circle cx="164" cy="122" r="12" fill="#f7c948"/>
  <circle cx="202" cy="122" r="12" fill="#58d68d"/>
  <rect x="254" y="111" width="276" height="22" rx="11" fill="#2d2930"/>
  <rect x="118" y="200" width="390" height="410" rx="24" fill="#18171a" stroke="#373138"/>
  <rect x="150" y="236" width="118" height="18" rx="9" fill="#cc78aa"/>
  <rect x="150" y="286" width="292" height="16" rx="8" fill="#655a64"/>
  <rect x="150" y="326" width="236" height="16" rx="8" fill="#4e464f"/>
  <rect x="150" y="366" width="318" height="16" rx="8" fill="#4e464f"/>
  <rect x="150" y="424" width="94" height="94" rx="18" fill="#27232a" stroke="#cc78aa"/>
  <rect x="274" y="424" width="94" height="94" rx="18" fill="#27232a" stroke="#f0d17a"/>
  <rect x="398" y="424" width="70" height="94" rx="18" fill="#27232a" stroke="#7dd3c7"/>
  <path d="M180 475h34m-17-17v34M304 474h34M425 466l17 17-17 17" fill="none" stroke="#f7f2f6" stroke-width="10" stroke-linecap="round" stroke-linejoin="round"/>
  <rect x="560" y="200" width="520" height="184" rx="24" fill="#18171a" stroke="#373138"/>
  <text x="596" y="258" fill="#f7f2f6" font-family="Arial, sans-serif" font-size="32" font-weight="700">API / Backend</text>
  <rect x="596" y="296" width="162" height="20" rx="10" fill="#cc78aa"/>
  <rect x="782" y="296" width="240" height="20" rx="10" fill="#514752"/>
  <path d="M628 352h382" stroke="#4d444d" stroke-width="10" stroke-linecap="round"/>
  <path d="M628 352h234" stroke="url(#accent)" stroke-width="10" stroke-linecap="round"/>
  <rect x="560" y="426" width="244" height="184" rx="24" fill="#18171a" stroke="#373138"/>
  <text x="596" y="486" fill="#f7f2f6" font-family="Arial, sans-serif" font-size="28" font-weight="700">Cloud</text>
  <path d="M638 552c-36 0-64-24-64-56 0-28 22-52 52-56 16-30 49-49 87-49 54 0 98 36 102 82 30 7 51 29 51 56 0 32-29 58-66 58H638z" transform="scale(.64) translate(430 328)" fill="#2b2730" stroke="#7dd3c7" stroke-width="6"/>
  <rect x="836" y="426" width="244" height="184" rx="24" fill="#18171a" stroke="#373138"/>
  <text x="872" y="486" fill="#f7f2f6" font-family="Arial, sans-serif" font-size="28" font-weight="700">Ops</text>
  <path d="M906 544h104m-52-52v104" stroke="#f0d17a" stroke-width="12" stroke-linecap="round"/>
  <path d="M508 471c52 0 52-179 104-179" fill="none" stroke="#cc78aa" stroke-width="8" stroke-linecap="round" stroke-dasharray="18 18"/>
  <path d="M804 520h32" stroke="#7dd3c7" stroke-width="8" stroke-linecap="round"/>
  <text x="116" y="694" fill="#f7f2f6" font-family="Arial, sans-serif" font-size="28" font-weight="700">SYSTEM DEVELOPMENT</text>
  <text x="116" y="724" fill="#c9bdc9" font-family="Arial, sans-serif" font-size="18">Planning / Implementation / Review / Operation</text>
</svg>
